HIERARCHY
ROOT Hips
{
	OFFSET -0.179506 -22.333345 2.821913
	CHANNELS 6 Xposition Yposition Zposition Zrotation Yrotation Xrotation 
	JOINT LeftUpLeg
	{
		OFFSET 6.951974 -9.140623 -0.681533
		CHANNELS 3 Zrotation Yrotation Xrotation
		JOINT LeftLeg
		{
			OFFSET 3.427654 -37.519855 -0.449580
			CHANNELS 3 Zrotation Yrotation Xrotation
			JOINT LeftFoot
			{
				OFFSET -1.359570 -39.796059 -4.369333
				CHANNELS 3 Zrotation Yrotation Xrotation
				JOINT LeftToe
				{
					OFFSET 2.635814 -5.579078 11.928840
					CHANNELS 3 Zrotation Yrotation Xrotation
					End Site
					{
						OFFSET 0.000000 0.000000 0.000000
					}
				}
			}
		}
	}
	JOINT RightUpLeg
	{
		OFFSET -6.767048 -9.052170 -0.431982
		CHANNELS 3 Zrotation Yrotation Xrotation
		JOINT RightLeg
		{
			OFFSET -3.829005 -38.256897 -0.885003
			CHANNELS 3 Zrotation Yrotation Xrotation
			JOINT RightFoot
			{
				OFFSET 1.577377 -39.841461 -4.231180
				CHANNELS 3 Zrotation Yrotation Xrotation
				JOINT RightToe
				{
					OFFSET -2.537174 -4.814398 12.334795
					CHANNELS 3 Zrotation Yrotation Xrotation
					End Site
					{
						OFFSET 0.000000 0.000000 0.000000
					}
				}
			}
		}
	}
	JOINT Spine
	{
		OFFSET -0.253288 10.896323 -2.669631
		CHANNELS 3 Zrotation Yrotation Xrotation
		JOINT Spine1
		{
			OFFSET 0.548704 13.518043 0.109247
			CHANNELS 3 Zrotation Yrotation Xrotation
			JOINT Spine2
			{
				OFFSET 0.145701 5.292222 2.542457
				CHANNELS 3 Zrotation Yrotation Xrotation
				JOINT Neck
				{
					OFFSET -0.277840 21.387037 -4.285703
					CHANNELS 3 Zrotation Yrotation Xrotation
					JOINT Head
					{
						OFFSET 0.515184 6.496960 5.134897
						CHANNELS 3 Zrotation Yrotation Xrotation
						End Site
						{
							OFFSET 0.000000 0.000000 0.000000
						}
					}
				}
				JOINT LeftShoulder
				{
					OFFSET 7.884473 12.174932 -3.408961
					CHANNELS 3 Zrotation Yrotation Xrotation
					JOINT LeftArm
					{
						OFFSET 9.097692 3.046888 -0.886815
						CHANNELS 3 Zrotation Yrotation Xrotation
						JOINT LeftForeArm
						{
							OFFSET 25.961220 -1.277207 -2.745643
							CHANNELS 3 Zrotation Yrotation Xrotation
							JOINT LeftHand
							{
								OFFSET 24.923361 0.898606 -0.117091
								CHANNELS 3 Zrotation Yrotation Xrotation
								End Site
								{
									OFFSET 0.000000 0.000000 0.000000
								}
							}
						}
					}
				}
				JOINT RightShoulder
				{
					OFFSET -8.175920 11.883285 -3.861528
					CHANNELS 3 Zrotation Yrotation Xrotation
					JOINT RightArm
					{
						OFFSET -9.601238 3.255117 -0.914307
						CHANNELS 3 Zrotation Yrotation Xrotation
						JOINT RightForeArm
						{
							OFFSET -25.374195 -1.332924 -2.140099
							CHANNELS 3 Zrotation Yrotation Xrotation
							JOINT RightHand
							{
								OFFSET -25.529810 0.777228 -0.555919
								CHANNELS 3 Zrotation Yrotation Xrotation
								End Site
								{
									OFFSET 0.000000 0.000000 0.000000
								}
							}
						}
					}
				}
			}
		}
	}
}
MOTION
Frames: 7
Frame Time: 0.033333
-33.032436 -29.624409 91.168793 -125.565688 -0.631577 76.241729 -6.960506 0.356116 9.817130 -3.796978 -3.451493 15.668991 5.421460 13.730592 -18.906011 nan nan nan -4.775545 1.969880 -3.005788 -2.580396 -7.624728 57.741853 6.346772 -6.139970 -11.076282 nan nan nan -1.914908 -0.459259 15.139474 3.209593 -2.417852 -1.651000 -0.020368 -0.732213 -1.715452 3.060366 4.613527 11.662487 -4.187073 1.279964 30.987925 -24.451840 -7.528768 -1.101159 -45.987768 -18.773908 12.645262 3.432137 -48.266557 -13.803356 -1.091452 -22.191958 -38.681197 23.811381 7.095984 -0.977491 52.500892 9.342248 25.674334 -55.284801 76.922441 -51.297931 -12.795808 6.522387 -31.022012 
-34.033028 -28.936331 91.358795 -124.649080 -0.382938 76.322475 -6.674229 0.584003 11.055088 -3.698300 -4.373296 14.829212 4.874415 13.350061 -18.912007 nan nan nan -4.714843 1.843992 -4.045753 -2.748599 -8.599815 55.843656 6.199700 -6.296008 -11.988528 nan nan nan -1.834420 -0.944219 15.250889 3.238924 -2.546678 -1.815106 0.136394 -0.987695 -1.792898 2.940707 4.460350 11.801852 -4.066570 1.234027 30.901545 -24.348714 -7.405059 -1.019321 -46.567130 -18.848373 12.817976 3.589127 -48.311196 -13.709017 -1.242927 -22.228258 -38.579952 23.669752 6.960749 -0.932265 52.428750 9.378785 25.281106 -54.020396 76.822938 -50.142770 -12.393282 6.694485 -31.032986 
-35.039314 -28.228479 91.516335 -123.896638 -0.120988 76.460526 -6.301014 0.842906 12.274277 -3.620669 -5.251217 13.921095 4.218424 12.929648 -19.006460 nan nan nan -4.587309 1.800782 -5.090128 -2.913858 -9.457660 53.757648 6.096688 -6.215064 -12.893564 nan nan nan -1.725801 -1.336761 15.192510 3.281998 -2.609508 -1.792498 0.294423 -1.225636 -1.919911 2.954483 4.447677 11.975622 -4.113897 0.984189 30.602285 -24.099805 -7.161416 -1.021192 -47.442300 -18.943254 13.019529 4.161443 -48.450765 -13.603239 -2.111491 -21.871178 -38.161177 23.550962 6.772967 -0.880762 52.334182 9.500015 24.858307 -52.493506 76.648855 -48.484588 -11.571380 6.756235 -31.311385 
-36.010353 -27.517372 91.645302 -123.239272 0.165284 76.662893 -5.732585 1.201057 13.382480 -3.620001 -6.014542 12.992638 3.547251 12.391944 -19.125553 nan nan nan -4.404754 1.829932 -6.134122 -2.784939 -10.149178 51.475269 6.133409 -5.865110 -13.597931 nan nan nan -1.602394 -1.708557 15.124486 3.321985 -2.654306 -1.873868 0.370260 -1.375107 -1.927478 3.056343 4.426185 12.149879 -4.084153 0.608449 30.230633 -24.110712 -7.113726 -0.845514 -47.552825 -19.051610 13.187710 4.065833 -48.901377 -13.361587 -2.176334 -21.811742 -37.981172 23.515627 6.626631 -0.928936 52.196197 9.596576 24.556789 -51.265567 76.488608 -47.545570 -11.482917 6.668590 -31.855898 
-36.990929 -26.828815 91.742577 -122.560792 0.412585 76.862716 -5.257976 1.554878 14.459650 -3.500034 -6.684617 12.085371 3.223107 11.911266 -19.176491 nan nan nan -4.341939 1.952200 -7.071329 -2.482958 -10.775142 48.891598 6.002988 -5.575817 -13.714339 nan nan nan -1.476642 -2.110575 15.020264 3.327871 -2.697966 -1.886401 0.452775 -1.513990 -1.944364 3.059680 4.295211 12.361698 -4.032874 0.329488 29.789550 -23.858306 -7.002869 -0.678436 -48.144008 -19.282083 13.374929 4.368589 -49.236885 -13.367795 -2.372980 -21.606267 -37.804148 23.324344 6.485788 -0.841375 52.214355 9.863742 24.195389 -50.178553 76.239140 -46.943105 -11.583997 6.410258 -32.444238 
-37.976097 -26.135057 91.795082 -121.854577 0.662141 77.087269 -4.802125 1.683062 15.545703 -3.485929 -7.322288 11.226677 3.175195 11.750045 -19.015210 nan nan nan -4.304072 2.136959 -7.902560 -2.011345 -11.926896 46.138930 5.929281 -6.490060 -14.310973 nan nan nan -1.385065 -2.574539 14.883646 3.317845 -2.614730 -1.883961 0.508610 -1.769930 -2.021147 3.069957 4.005696 12.391149 -3.865809 0.369088 29.647512 -23.908703 -6.799487 -0.381274 -48.222122 -19.525800 13.573102 4.543654 -50.018617 -13.222879 -0.955218 -21.126277 -37.680371 23.108268 6.409962 -0.631881 52.289988 10.067464 24.106987 -50.184569 75.777626 -47.280350 -11.711723 6.272350 -32.836445 
-38.918560 -25.432074 91.816177 -121.249965 0.871823 77.429514 -4.299374 1.811904 16.465657 -3.557507 -7.790021 10.447372 2.834069 11.574535 -19.135123 nan nan nan -4.297205 2.392300 -8.877199 -1.500197 -12.904227 43.237128 5.967837 -6.898136 -14.802612 nan nan nan -1.375494 -2.946411 14.648483 3.370061 -2.554707 -1.904510 0.585386 -1.900389 -2.092747 3.191050 3.920289 12.515701 -3.808070 0.097645 29.432928 -23.785953 -6.599223 -0.210896 -48.588429 -19.774927 13.861322 4.790265 -50.571641 -12.873619 -1.542883 -21.025239 -37.645639 23.010218 6.222942 -0.395274 52.262812 10.304157 23.862478 -50.183656 75.365007 -47.080225 -11.253601 6.244972 -32.950782 
